<svg width="168" height="55" viewBox="0 0 168 55" fill="none" xmlns="http://www.w3.org/2000/svg">
<rect x="0.5" width="167" height="55" rx="27.5" fill="#307EF4"/>
<path d="M55.541 34.216C54.353 34.216 53.315 33.946 52.427 33.406C51.539 32.866 50.849 32.11 50.357 31.138C49.865 30.166 49.619 29.032 49.619 27.736C49.619 26.452 49.871 25.318 50.375 24.334C50.879 23.35 51.593 22.582 52.517 22.03C53.453 21.466 54.557 21.184 55.829 21.184C57.269 21.184 58.469 21.532 59.429 22.228C60.389 22.924 61.013 23.884 61.301 25.108H59.141C58.949 24.436 58.571 23.908 58.007 23.524C57.443 23.14 56.717 22.948 55.829 22.948C54.509 22.948 53.471 23.374 52.715 24.226C51.959 25.078 51.581 26.254 51.581 27.754C51.581 29.254 51.953 30.424 52.697 31.264C53.441 32.104 54.431 32.524 55.667 32.524C56.915 32.524 57.851 32.17 58.475 31.462C59.111 30.754 59.483 29.812 59.591 28.636H56.171V27.16H61.517V34H59.771L59.609 32.146C59.189 32.806 58.661 33.316 58.025 33.676C57.389 34.036 56.561 34.216 55.541 34.216ZM67.9367 34.216C67.0847 34.216 66.3167 34.024 65.6327 33.64C64.9607 33.244 64.4267 32.698 64.0307 32.002C63.6347 31.294 63.4367 30.472 63.4367 29.536C63.4367 28.6 63.6347 27.784 64.0307 27.088C64.4387 26.38 64.9847 25.834 65.6687 25.45C66.3527 25.054 67.1147 24.856 67.9547 24.856C68.8067 24.856 69.5687 25.054 70.2407 25.45C70.9247 25.834 71.4647 26.38 71.8607 27.088C72.2687 27.784 72.4727 28.6 72.4727 29.536C72.4727 30.472 72.2687 31.294 71.8607 32.002C71.4647 32.698 70.9247 33.244 70.2407 33.64C69.5567 34.024 68.7887 34.216 67.9367 34.216ZM67.9367 32.578C68.3927 32.578 68.8127 32.464 69.1967 32.236C69.5927 32.008 69.9107 31.672 70.1507 31.228C70.3907 30.772 70.5107 30.208 70.5107 29.536C70.5107 28.864 70.3907 28.306 70.1507 27.862C69.9227 27.406 69.6107 27.064 69.2147 26.836C68.8307 26.608 68.4107 26.494 67.9547 26.494C67.4987 26.494 67.0727 26.608 66.6767 26.836C66.2927 27.064 65.9807 27.406 65.7407 27.862C65.5007 28.306 65.3807 28.864 65.3807 29.536C65.3807 30.208 65.5007 30.772 65.7407 31.228C65.9807 31.672 66.2927 32.008 66.6767 32.236C67.0607 32.464 67.4807 32.578 67.9367 32.578ZM79.1432 34V21.4H83.8952C85.2032 21.4 86.1932 21.706 86.8652 22.318C87.5372 22.93 87.8732 23.698 87.8732 24.622C87.8732 25.426 87.6572 26.068 87.2252 26.548C86.7932 27.016 86.2712 27.334 85.6592 27.502C86.1392 27.598 86.5652 27.79 86.9372 28.078C87.3212 28.366 87.6212 28.726 87.8372 29.158C88.0532 29.59 88.1612 30.058 88.1612 30.562C88.1612 31.21 87.9992 31.798 87.6752 32.326C87.3632 32.842 86.9012 33.25 86.2892 33.55C85.6772 33.85 84.9272 34 84.0392 34H79.1432ZM81.0512 26.8H83.6612C84.3932 26.8 84.9512 26.632 85.3352 26.296C85.7192 25.948 85.9112 25.474 85.9112 24.874C85.9112 24.286 85.7192 23.818 85.3352 23.47C84.9632 23.122 84.3932 22.948 83.6252 22.948H81.0512V26.8ZM81.0512 32.434H83.7872C84.5552 32.434 85.1492 32.254 85.5692 31.894C86.0012 31.534 86.2172 31.03 86.2172 30.382C86.2172 29.734 85.9952 29.224 85.5512 28.852C85.1072 28.468 84.5072 28.276 83.7512 28.276H81.0512V32.434ZM93.2046 34.216C92.4486 34.216 91.8246 34.09 91.3326 33.838C90.8406 33.586 90.4746 33.256 90.2346 32.848C89.9946 32.428 89.8746 31.972 89.8746 31.48C89.8746 30.616 90.2106 29.932 90.8826 29.428C91.5546 28.924 92.5146 28.672 93.7626 28.672H96.1026V28.51C96.1026 27.814 95.9106 27.292 95.5266 26.944C95.1546 26.596 94.6686 26.422 94.0686 26.422C93.5406 26.422 93.0786 26.554 92.6826 26.818C92.2986 27.07 92.0646 27.448 91.9806 27.952H90.0726C90.1326 27.304 90.3486 26.752 90.7206 26.296C91.1046 25.828 91.5846 25.474 92.1606 25.234C92.7486 24.982 93.3906 24.856 94.0866 24.856C95.3346 24.856 96.3006 25.186 96.9846 25.846C97.6686 26.494 98.0106 27.382 98.0106 28.51V34H96.3546L96.1926 32.47C95.9406 32.962 95.5746 33.376 95.0946 33.712C94.6146 34.048 93.9846 34.216 93.2046 34.216ZM93.5826 32.668C94.0986 32.668 94.5306 32.548 94.8786 32.308C95.2386 32.056 95.5146 31.726 95.7066 31.318C95.9106 30.91 96.0366 30.46 96.0846 29.968H93.9606C93.2046 29.968 92.6646 30.1 92.3406 30.364C92.0286 30.628 91.8726 30.958 91.8726 31.354C91.8726 31.762 92.0226 32.086 92.3226 32.326C92.6346 32.554 93.0546 32.668 93.5826 32.668ZM104.465 34.216C103.589 34.216 102.803 34.018 102.107 33.622C101.423 33.226 100.883 32.68 100.487 31.984C100.103 31.276 99.9113 30.46 99.9113 29.536C99.9113 28.612 100.103 27.802 100.487 27.106C100.883 26.398 101.423 25.846 102.107 25.45C102.803 25.054 103.589 24.856 104.465 24.856C105.569 24.856 106.493 25.144 107.237 25.72C107.993 26.296 108.479 27.076 108.695 28.06H106.697C106.577 27.568 106.313 27.184 105.905 26.908C105.497 26.632 105.017 26.494 104.465 26.494C103.997 26.494 103.565 26.614 103.169 26.854C102.773 27.082 102.455 27.424 102.215 27.88C101.975 28.324 101.855 28.876 101.855 29.536C101.855 30.196 101.975 30.754 102.215 31.21C102.455 31.654 102.773 31.996 103.169 32.236C103.565 32.476 103.997 32.596 104.465 32.596C105.017 32.596 105.497 32.458 105.905 32.182C106.313 31.906 106.577 31.516 106.697 31.012H108.695C108.491 31.972 108.011 32.746 107.255 33.334C106.499 33.922 105.569 34.216 104.465 34.216ZM110.765 34V21.04H112.673V28.762L116.093 25.072H118.379L114.581 29.122L118.937 34H116.525L112.673 29.428V34H110.765Z" fill="white"/>
</svg>
