<svg width="301" height="230" viewBox="0 0 301 230" fill="none" xmlns="http://www.w3.org/2000/svg">
<g filter="url(#filter0_f_5_853)">
<ellipse cx="147.486" cy="186.812" rx="110.607" ry="21.3375" fill="#1F88F8" fill-opacity="0.35"/>
</g>
<path d="M148.701 229.402C212.049 229.402 263.402 178.049 263.402 114.701C263.402 51.3534 212.049 0 148.701 0C85.3534 0 34 51.3534 34 114.701C34 178.049 85.3534 229.402 148.701 229.402Z" fill="url(#paint0_linear_5_853)"/>
<g filter="url(#filter1_d_5_853)">
<path d="M244.782 77.624L146.491 146.219L48.2007 77.624L138.178 14.8054C140.618 13.1047 143.521 12.1929 146.496 12.1929C149.47 12.1929 152.373 13.1047 154.813 14.8054L172.761 27.3528L177.46 30.6161L224.778 63.657L229.763 67.1569L244.782 77.624Z" fill="url(#paint1_linear_5_853)"/>
</g>
<path d="M130.509 135.066L48.2007 193.594V77.624L130.509 135.066Z" fill="url(#paint2_linear_5_853)"/>
<g filter="url(#filter2_f_5_853)">
<ellipse cx="194.515" cy="75.3346" rx="36.5786" ry="11.7574" fill="#FF4C77" fill-opacity="0.3"/>
</g>
<path d="M162.481 135.066L244.79 193.594V77.624L162.481 135.066Z" fill="url(#paint3_linear_5_853)"/>
<path d="M48.2007 193.594L138.072 129.698C140.532 127.947 143.476 127.006 146.496 127.006C149.515 127.006 152.459 127.947 154.919 129.698L244.782 193.594H48.2007Z" fill="url(#paint4_linear_5_853)"/>
<path d="M196.207 68.1406C198.951 68.1406 200.867 66.2679 200.867 63.6548C200.867 61.0417 198.951 59.1689 196.207 59.1689C193.507 59.1689 191.547 61.0417 191.547 63.6548C191.547 66.2679 193.507 68.1406 196.207 68.1406ZM199.952 57.5575C199.952 54.5089 201.433 53.333 203.698 52.1571C206.746 50.5892 209.011 48.0196 209.011 44.3613C209.011 38.9173 203.829 35.0847 196.904 35.0847C189.587 35.0847 184.361 39.3963 183.838 45.4501L192.244 46.9744C192.549 44.1871 194.204 42.1401 196.555 42.1401C198.428 42.1401 199.865 43.4467 199.865 45.2323C199.865 47.0179 198.254 48.0196 196.86 48.9342C193.812 50.9376 192.505 53.2023 192.505 57.5575H199.952Z" fill="white"/>
<g filter="url(#filter3_d_5_853)">
<path d="M58.5861 56.6098C43.5175 63.6585 27.325 67.9976 10.751 69.428C12.9905 74.6339 28.9028 100.693 76.1387 122.165C77.4156 122.361 106.912 108.639 123.1 99.2292C122.55 100.015 72.8187 81.7159 58.5861 56.6098Z" fill="url(#paint5_linear_5_853)"/>
</g>
<path d="M195.645 85.1295C213.758 85.1295 228.441 70.4462 228.441 52.3333C228.441 34.2205 213.758 19.5371 195.645 19.5371C177.532 19.5371 162.849 34.2205 162.849 52.3333C162.849 70.4462 177.532 85.1295 195.645 85.1295Z" fill="url(#paint6_linear_5_853)"/>
<path d="M195.339 71.8688C198.837 71.8688 201.28 69.4814 201.28 66.1501C201.28 62.8189 198.837 60.4315 195.339 60.4315C191.897 60.4315 189.398 62.8189 189.398 66.1501C189.398 69.4814 191.897 71.8688 195.339 71.8688ZM200.114 58.3772C200.114 54.4907 202.002 52.9916 204.889 51.4926C208.775 49.4938 211.662 46.218 211.662 41.5543C211.662 34.6141 205.055 29.7283 196.228 29.7283C186.9 29.7283 180.237 35.2249 179.571 42.9423L190.287 44.8855C190.675 41.3322 192.785 38.7227 195.783 38.7227C198.171 38.7227 200.003 40.3883 200.003 42.6647C200.003 44.9411 197.949 46.218 196.172 47.384C192.286 49.938 190.62 52.8251 190.62 58.3772H200.114Z" fill="white"/>
<path d="M59.7522 69.566C59.0588 69.0849 58.1805 68.955 57.3775 69.2148L31.0135 77.7443C30.0691 78.0499 29.7326 79.2131 30.3681 79.9757C30.8798 80.5898 31.7174 80.8243 32.4736 80.5653L59.5102 71.3048C60.2731 71.0435 60.4148 70.0257 59.7522 69.566Z" fill="#C9DFFF"/>
<path d="M59.2951 80.0711C58.6264 79.4433 57.6666 79.234 56.7973 79.5266L38.5459 85.669C37.7411 85.9399 37.4569 86.9329 37.9966 87.5885C38.4375 88.1241 39.1641 88.3306 39.8208 88.107L58.9673 81.5878C59.6137 81.3678 59.7929 80.5385 59.2951 80.0711Z" fill="#C9DFFF"/>
<path d="M69.0913 85.273C68.3935 84.7142 67.455 84.5595 66.6148 84.8649L45.5915 92.5058C44.7663 92.8057 44.518 93.8525 45.1205 94.491C45.5814 94.9796 46.2892 95.1463 46.9198 94.915L68.8299 86.8747C69.511 86.6248 69.6576 85.7265 69.0913 85.273Z" fill="#C9DFFF"/>
<path d="M76.4411 101.044C75.7949 100.33 74.7763 100.086 73.8763 100.429L61.8614 105.014C61.1236 105.296 60.8576 106.203 61.3267 106.838C61.7663 107.434 62.5498 107.661 63.2399 107.394L76.118 102.406C76.6735 102.191 76.8407 101.486 76.4411 101.044Z" fill="#C9DFFF"/>
<g filter="url(#filter4_d_5_853)">
<path d="M232.77 92.9507C251.042 101.498 270.676 106.759 290.773 108.494C288.058 114.806 268.763 146.404 211.487 172.44C209.939 172.678 174.172 156.039 154.544 144.629C155.211 145.582 215.512 123.393 232.77 92.9507Z" fill="url(#paint7_linear_5_853)"/>
</g>
<path d="M231.357 108.661C232.198 108.078 233.263 107.92 234.236 108.235L266.204 118.578C267.349 118.948 267.757 120.359 266.987 121.284C266.366 122.028 265.351 122.313 264.434 121.998L231.65 110.77C230.725 110.453 230.553 109.219 231.357 108.661Z" fill="#C9DFFF"/>
<path d="M222.406 117.175C223.217 116.413 224.381 116.16 225.435 116.514L247.566 123.962C248.542 124.291 248.886 125.495 248.232 126.29C247.697 126.939 246.816 127.19 246.02 126.919L222.804 119.014C222.02 118.747 221.803 117.741 222.406 117.175Z" fill="#C9DFFF"/>
<path d="M213.208 124.242C214.054 123.564 215.192 123.377 216.211 123.747L241.703 133.012C242.703 133.376 243.005 134.645 242.274 135.419C241.715 136.012 240.857 136.214 240.092 135.933L213.525 126.184C212.699 125.881 212.521 124.792 213.208 124.242Z" fill="#C9DFFF"/>
<path d="M192.51 138.382C193.294 137.516 194.529 137.219 195.62 137.636L210.189 143.195C211.084 143.537 211.406 144.637 210.837 145.407C210.304 146.129 209.354 146.405 208.518 146.081L192.902 140.033C192.229 139.772 192.026 138.917 192.51 138.382Z" fill="#C9DFFF"/>
<path d="M202.02 130.831C202.882 130.29 203.946 130.178 204.902 130.527L238.47 142.801C239.543 143.193 239.803 144.592 238.943 145.343C238.374 145.84 237.579 145.987 236.87 145.726L202.242 132.97C201.309 132.626 201.177 131.359 202.02 130.831Z" fill="#C9DFFF"/>
<path d="M83.7122 88.7204C83.001 88.2742 82.1235 88.1819 81.335 88.4702L53.6514 98.5922C52.7665 98.9157 52.5522 100.069 53.2617 100.689C53.731 101.099 54.3867 101.22 54.9714 101.005L83.5287 90.4847C84.2988 90.201 84.4074 89.1565 83.7122 88.7204Z" fill="#C9DFFF"/>
<path d="M243.722 26.9985C243.722 29.644 241.577 31.7886 238.932 31.7886C236.286 31.7886 234.142 29.644 234.142 26.9985C234.142 24.353 236.286 22.2084 238.932 22.2084C241.577 22.2084 243.722 24.353 243.722 26.9985Z" stroke="url(#paint8_linear_5_853)" stroke-width="2.61276"/>
<circle cx="69.1028" cy="204.666" r="4.79006" stroke="url(#paint9_linear_5_853)" stroke-width="2.61276"/>
<circle cx="216.288" cy="214.246" r="4.79006" stroke="url(#paint10_linear_5_853)" stroke-width="2.61276"/>
<path d="M85.36 31.9319C85.8749 29.799 88.9088 29.799 89.4237 31.9319L91.1566 39.1108C91.3406 39.873 91.9357 40.4681 92.698 40.6521L99.8768 42.3851C102.01 42.8999 102.01 45.9339 99.8768 46.4488L92.698 48.1817C91.9357 48.3657 91.3406 48.9608 91.1566 49.7231L89.4237 56.9019C88.9088 59.0348 85.8749 59.0348 85.36 56.9019L83.627 49.723C83.443 48.9608 82.8479 48.3657 82.0857 48.1817L74.9069 46.4488C72.7739 45.9339 72.7739 42.8999 74.9069 42.3851L82.0857 40.6521C82.8479 40.4681 83.443 39.873 83.627 39.1108L85.36 31.9319Z" fill="url(#paint11_linear_5_853)"/>
<path d="M259.87 183.417C260.385 181.284 263.419 181.284 263.934 183.417L265.667 190.596C265.851 191.358 266.446 191.953 267.208 192.137L274.387 193.87C276.52 194.385 276.52 197.419 274.387 197.934L267.208 199.667C266.446 199.851 265.851 200.446 265.667 201.208L263.934 208.387C263.419 210.52 260.385 210.52 259.87 208.387L258.137 201.208C257.953 200.446 257.358 199.851 256.596 199.667L249.417 197.934C247.284 197.419 247.284 194.385 249.417 193.87L256.596 192.137C257.358 191.953 257.953 191.358 258.137 190.596L259.87 183.417Z" fill="url(#paint12_linear_5_853)"/>
<path d="M37.2337 166.614C38.5577 166.402 39.6147 167.703 39.1363 168.956L35.9073 177.411C35.4289 178.664 33.7739 178.929 32.9283 177.888L27.2204 170.864C26.3747 169.823 26.9727 168.258 28.2967 168.046L37.2337 166.614Z" fill="url(#paint13_linear_5_853)"/>
<path d="M263.329 80.4219C262.997 79.1226 264.197 77.9519 265.488 78.3147L274.201 80.7633C275.492 81.126 275.906 82.7502 274.946 83.6867L268.469 90.0084C267.51 90.9449 265.896 90.4915 265.565 89.1922L263.329 80.4219Z" fill="url(#paint14_linear_5_853)"/>
<defs>
<filter id="filter0_f_5_853" x="15.1059" y="143.702" width="264.76" height="86.2211" filterUnits="userSpaceOnUse" color-interpolation-filters="sRGB">
<feFlood flood-opacity="0" result="BackgroundImageFix"/>
<feBlend mode="normal" in="SourceGraphic" in2="BackgroundImageFix" result="shape"/>
<feGaussianBlur stdDeviation="10.8865" result="effect1_foregroundBlur_5_853"/>
</filter>
<filter id="filter1_d_5_853" x="44.717" y="12.1929" width="203.549" height="140.993" filterUnits="userSpaceOnUse" color-interpolation-filters="sRGB">
<feFlood flood-opacity="0" result="BackgroundImageFix"/>
<feColorMatrix in="SourceAlpha" type="matrix" values="0 0 0 0 0 0 0 0 0 0 0 0 0 0 0 0 0 0 127 0" result="hardAlpha"/>
<feOffset dy="3.48368"/>
<feGaussianBlur stdDeviation="1.74184"/>
<feComposite in2="hardAlpha" operator="out"/>
<feColorMatrix type="matrix" values="0 0 0 0 0 0 0 0 0 0 0 0 0 0 0 0 0 0 0.25 0"/>
<feBlend mode="normal" in2="BackgroundImageFix" result="effect1_dropShadow_5_853"/>
<feBlend mode="normal" in="SourceGraphic" in2="effect1_dropShadow_5_853" result="shape"/>
</filter>
<filter id="filter2_f_5_853" x="136.164" y="41.8042" width="116.703" height="67.0608" filterUnits="userSpaceOnUse" color-interpolation-filters="sRGB">
<feFlood flood-opacity="0" result="BackgroundImageFix"/>
<feBlend mode="normal" in="SourceGraphic" in2="BackgroundImageFix" result="shape"/>
<feGaussianBlur stdDeviation="10.8865" result="effect1_foregroundBlur_5_853"/>
</filter>
<filter id="filter3_d_5_853" x="0.299939" y="49.6424" width="133.251" height="86.4589" filterUnits="userSpaceOnUse" color-interpolation-filters="sRGB">
<feFlood flood-opacity="0" result="BackgroundImageFix"/>
<feColorMatrix in="SourceAlpha" type="matrix" values="0 0 0 0 0 0 0 0 0 0 0 0 0 0 0 0 0 0 127 0" result="hardAlpha"/>
<feOffset dy="3.48368"/>
<feGaussianBlur stdDeviation="5.22552"/>
<feComposite in2="hardAlpha" operator="out"/>
<feColorMatrix type="matrix" values="0 0 0 0 0.0196078 0 0 0 0 0.168627 0 0 0 0 0.396078 0 0 0 0.15 0"/>
<feBlend mode="normal" in2="BackgroundImageFix" result="effect1_dropShadow_5_853"/>
<feBlend mode="normal" in="SourceGraphic" in2="effect1_dropShadow_5_853" result="shape"/>
</filter>
<filter id="filter4_d_5_853" x="134.458" y="91.2088" width="165.841" height="109.103" filterUnits="userSpaceOnUse" color-interpolation-filters="sRGB">
<feFlood flood-opacity="0" result="BackgroundImageFix"/>
<feColorMatrix in="SourceAlpha" type="matrix" values="0 0 0 0 0 0 0 0 0 0 0 0 0 0 0 0 0 0 127 0" result="hardAlpha"/>
<feOffset dx="-5.28021" dy="13.0638"/>
<feGaussianBlur stdDeviation="7.40282"/>
<feComposite in2="hardAlpha" operator="out"/>
<feColorMatrix type="matrix" values="0 0 0 0 0.021441 0 0 0 0 0.168056 0 0 0 0 0.395833 0 0 0 0.15 0"/>
<feBlend mode="normal" in2="BackgroundImageFix" result="effect1_dropShadow_5_853"/>
<feBlend mode="normal" in="SourceGraphic" in2="effect1_dropShadow_5_853" result="shape"/>
</filter>
<linearGradient id="paint0_linear_5_853" x1="147.817" y1="-37.3495" x2="150.167" y2="365.463" gradientUnits="userSpaceOnUse">
<stop stop-color="#CAE0FF" stop-opacity="0"/>
<stop offset="1" stop-color="#BCD8FF"/>
</linearGradient>
<linearGradient id="paint1_linear_5_853" x1="146.491" y1="12.1929" x2="146.491" y2="146.219" gradientUnits="userSpaceOnUse">
<stop stop-color="#EDF4FF"/>
<stop offset="1" stop-color="#ABCCFF"/>
</linearGradient>
<linearGradient id="paint2_linear_5_853" x1="89.355" y1="77.624" x2="89.355" y2="193.594" gradientUnits="userSpaceOnUse">
<stop stop-color="#ABCCFF"/>
<stop offset="1" stop-color="#70A8FF"/>
</linearGradient>
<linearGradient id="paint3_linear_5_853" x1="203.636" y1="77.624" x2="203.636" y2="193.594" gradientUnits="userSpaceOnUse">
<stop stop-color="#ABCCFF"/>
<stop offset="1" stop-color="#70A8FF"/>
</linearGradient>
<linearGradient id="paint4_linear_5_853" x1="146.491" y1="127.006" x2="146.491" y2="193.594" gradientUnits="userSpaceOnUse">
<stop stop-color="#70A8FF"/>
<stop offset="1" stop-color="#5597FD"/>
</linearGradient>
<linearGradient id="paint5_linear_5_853" x1="22.9438" y1="85.7856" x2="96.5366" y2="71.4154" gradientUnits="userSpaceOnUse">
<stop stop-color="#C6DDFF"/>
<stop offset="1" stop-color="white"/>
</linearGradient>
<linearGradient id="paint6_linear_5_853" x1="163.162" y1="23.9502" x2="228.481" y2="85.3501" gradientUnits="userSpaceOnUse">
<stop stop-color="#FF698D"/>
<stop offset="1" stop-color="#FF3868"/>
</linearGradient>
<linearGradient id="paint7_linear_5_853" x1="275.989" y1="128.328" x2="186.753" y2="110.903" gradientUnits="userSpaceOnUse">
<stop stop-color="#C6DDFF"/>
<stop offset="1" stop-color="white"/>
</linearGradient>
<linearGradient id="paint8_linear_5_853" x1="231.438" y1="23.1882" x2="250.49" y2="39.6994" gradientUnits="userSpaceOnUse">
<stop stop-color="#94BFFF"/>
<stop offset="1" stop-color="#4C94FE"/>
</linearGradient>
<linearGradient id="paint9_linear_5_853" x1="61.6092" y1="200.856" x2="80.6606" y2="217.367" gradientUnits="userSpaceOnUse">
<stop stop-color="#94BFFF"/>
<stop offset="1" stop-color="#4C94FE"/>
</linearGradient>
<linearGradient id="paint10_linear_5_853" x1="208.795" y1="210.436" x2="227.846" y2="226.947" gradientUnits="userSpaceOnUse">
<stop stop-color="#94BFFF"/>
<stop offset="1" stop-color="#4C94FE"/>
</linearGradient>
<linearGradient id="paint11_linear_5_853" x1="87.3918" y1="23.5148" x2="87.3918" y2="65.319" gradientUnits="userSpaceOnUse">
<stop stop-color="#70A8FF"/>
<stop offset="1" stop-color="#5597FD"/>
</linearGradient>
<linearGradient id="paint12_linear_5_853" x1="261.902" y1="175" x2="261.902" y2="216.804" gradientUnits="userSpaceOnUse">
<stop stop-color="#70A8FF"/>
<stop offset="1" stop-color="#5597FD"/>
</linearGradient>
<linearGradient id="paint13_linear_5_853" x1="40.2127" y1="166.137" x2="26.6949" y2="177.122" gradientUnits="userSpaceOnUse">
<stop stop-color="#70A8FF"/>
<stop offset="1" stop-color="#5597FD"/>
</linearGradient>
<linearGradient id="paint14_linear_5_853" x1="262.583" y1="77.4985" x2="274.749" y2="89.9639" gradientUnits="userSpaceOnUse">
<stop stop-color="#70A8FF"/>
<stop offset="1" stop-color="#5597FD"/>
</linearGradient>
</defs>
</svg>
